<svg xmlns="http://www.w3.org/2000/svg" viewBox="0 0 62 52"><defs><style>.cls-1{fill:none;stroke:#f93045;stroke-miterlimit:10;stroke-width:2px;}</style></defs><title>-auto-</title><g id="Capa_2" data-name="Capa 2"><g id="Capa_1-2" data-name="Capa 1"><path id="_auto_" data-name="&lt;auto&gt;" class="cls-1" d="M15.48,51c4.3,0,7.78-5.41,7.78-12.09s-3.48-12.1-7.78-12.1-7.77,5.42-7.77,12.1S11.19,51,15.48,51Zm31.11,0c4.29,0,7.77-5.41,7.77-12.09s-3.48-12.1-7.77-12.1-7.78,5.42-7.78,12.1S42.29,51,46.59,51ZM8,39.43H1c.22-8.72.18-14.79,0-19.35-.05-1.23-.16-3.76.78-4.84,1.23-1.4,3,1.14,4.67,0S8,10.61,8.81,8C11.14.61,21.25,0,27.47,1.94,35.24,4.35,35,14,43,16.45c1.29.4,3.75.94,7.78,2.42,5.64,2.07,6.59,3.13,7,3.63,3.38,4.16,3.35,12.6,3.11,16.93H54.69m-31.11-.6H39.13"/></g></g></svg>