<?xml version="1.0" encoding="utf-8"?>
<!-- Generator: Adobe Illustrator 16.0.3, SVG Export Plug-In . SVG Version: 6.00 Build 0)  -->
<!DOCTYPE svg PUBLIC "-//W3C//DTD SVG 1.1//EN" "http://www.w3.org/Graphics/SVG/1.1/DTD/svg11.dtd">
<svg version="1.1" id="Capa_1" xmlns="http://www.w3.org/2000/svg" xmlns:xlink="http://www.w3.org/1999/xlink" x="0px" y="0px"
	 width="1080px" height="1080px" viewBox="0 0 1080 1080" enable-background="new 0 0 1080 1080" xml:space="preserve">
<g>
	<path fill="#3399CC" d="M597.28,533.592h-29.17c0.569-4.15,2.199-7.359,4.81-9.72c2.64-2.33,5.86-3.479,9.72-3.479
		c4.061,0,7.5,1.199,10.32,3.619C595.75,526.402,597.19,529.602,597.28,533.592z"/>
	<path fill="#3399CC" d="M435.33,529.643c-1.49-2.681-3.479-4.771-5.99-6.19c-2.529-1.44-5.22-2.171-8.1-2.171
		s-5.55,0.711-7.99,2.111c-2.439,1.389-4.41,3.459-5.939,6.159c-1.511,2.69-2.271,5.88-2.271,9.591c0,3.699,0.76,6.92,2.271,9.689
		c1.529,2.779,3.529,4.9,5.989,6.391c2.48,1.49,5.12,2.219,7.94,2.219c2.88,0,5.57-0.709,8.1-2.15c2.511-1.469,4.5-3.529,5.99-6.238
		c1.46-2.682,2.22-5.92,2.22-9.691C437.55,535.592,436.79,532.352,435.33,529.643z M435.33,529.643
		c-1.49-2.681-3.479-4.771-5.99-6.19c-2.529-1.44-5.22-2.171-8.1-2.171s-5.55,0.711-7.99,2.111c-2.439,1.389-4.41,3.459-5.939,6.159
		c-1.511,2.69-2.271,5.88-2.271,9.591c0,3.699,0.76,6.92,2.271,9.689c1.529,2.779,3.529,4.9,5.989,6.391
		c2.48,1.49,5.12,2.219,7.94,2.219c2.88,0,5.57-0.709,8.1-2.15c2.511-1.469,4.5-3.529,5.99-6.238c1.46-2.682,2.22-5.92,2.22-9.691
		C437.55,535.592,436.79,532.352,435.33,529.643z M286.24,524.012c-2.82-2.42-6.25-3.619-10.31-3.619
		c-3.841,0-7.08,1.149-9.721,3.479c-2.62,2.36-4.22,5.569-4.819,9.72h29.18C290.5,529.602,289.061,526.402,286.24,524.012z
		 M363.71,529.552c-1.51-2.7-3.5-4.771-5.989-6.159c-2.461-1.4-5.141-2.111-8.03-2.111c-2.82,0-5.46,0.73-7.94,2.171
		c-2.46,1.42-4.46,3.53-5.99,6.26c-1.51,2.729-2.26,5.95-2.26,9.649c0,3.701,0.75,6.92,2.26,9.65c1.53,2.73,3.53,4.811,5.99,6.279
		c2.48,1.441,5.12,2.15,7.94,2.15c2.89,0,5.569-0.729,8.03-2.219c2.489-1.49,4.479-3.59,5.989-6.32c1.53-2.73,2.29-5.99,2.29-9.76
		C366,535.432,365.24,532.242,363.71,529.552z M435.33,529.643c-1.49-2.681-3.479-4.771-5.99-6.19c-2.529-1.44-5.22-2.171-8.1-2.171
		s-5.55,0.711-7.99,2.111c-2.439,1.389-4.41,3.459-5.939,6.159c-1.511,2.69-2.271,5.88-2.271,9.591c0,3.699,0.76,6.92,2.271,9.689
		c1.529,2.779,3.529,4.9,5.989,6.391c2.48,1.49,5.12,2.219,7.94,2.219c2.88,0,5.57-0.709,8.1-2.15c2.511-1.469,4.5-3.529,5.99-6.238
		c1.46-2.682,2.22-5.92,2.22-9.691C437.55,535.592,436.79,532.352,435.33,529.643z M435.33,529.643
		c-1.49-2.681-3.479-4.771-5.99-6.19c-2.529-1.44-5.22-2.171-8.1-2.171s-5.55,0.711-7.99,2.111c-2.439,1.389-4.41,3.459-5.939,6.159
		c-1.511,2.69-2.271,5.88-2.271,9.591c0,3.699,0.76,6.92,2.271,9.689c1.529,2.779,3.529,4.9,5.989,6.391
		c2.48,1.49,5.12,2.219,7.94,2.219c2.88,0,5.57-0.709,8.1-2.15c2.511-1.469,4.5-3.529,5.99-6.238c1.46-2.682,2.22-5.92,2.22-9.691
		C437.55,535.592,436.79,532.352,435.33,529.643z M363.71,529.552c-1.51-2.7-3.5-4.771-5.989-6.159
		c-2.461-1.4-5.141-2.111-8.03-2.111c-2.82,0-5.46,0.73-7.94,2.171c-2.46,1.42-4.46,3.53-5.99,6.26
		c-1.51,2.729-2.26,5.95-2.26,9.649c0,3.701,0.75,6.92,2.26,9.65c1.53,2.73,3.53,4.811,5.99,6.279c2.48,1.441,5.12,2.15,7.94,2.15
		c2.89,0,5.569-0.729,8.03-2.219c2.489-1.49,4.479-3.59,5.989-6.32c1.53-2.73,2.29-5.99,2.29-9.76
		C366,535.432,365.24,532.242,363.71,529.552z M286.24,524.012c-2.82-2.42-6.25-3.619-10.31-3.619c-3.841,0-7.08,1.149-9.721,3.479
		c-2.62,2.36-4.22,5.569-4.819,9.72h29.18C290.5,529.602,289.061,526.402,286.24,524.012z M598.61,476.912h-381.59
		c-14.7,0-26.62,11.92-26.62,26.619v82.09c0,14.701,11.92,26.621,26.62,26.621h381.59c14.71,0,26.63-11.92,26.63-26.621v-82.09
		C625.24,488.832,613.32,476.912,598.61,476.912z M239.101,524.052h-4.11c-4.88,0-8.56,1.15-11.04,3.44
		c-2.47,2.289-3.71,6.279-3.71,11.98v30.619h-15.53v-61.46h15.53v9.54c2-3.26,4.59-5.811,7.83-7.65c3.2-1.84,6.88-2.77,11.03-2.77
		V524.052z M306.21,544.021h-44.93c0.38,4.441,1.93,7.92,4.66,10.43c2.729,2.5,6.1,3.771,10.1,3.771c5.771,0,9.87-2.49,12.311-7.441
		h16.75c-1.78,5.932-5.17,10.791-10.21,14.602c-5.03,3.799-11.2,5.709-18.521,5.709c-5.92,0-11.229-1.32-15.93-3.949
		c-4.681-2.621-8.34-6.33-10.98-11.141c-2.62-4.811-3.93-10.359-3.93-16.641c0-6.369,1.29-11.939,3.88-16.75
		c2.6-4.819,6.22-8.5,10.87-11.09c4.66-2.6,10.03-3.89,16.09-3.89c5.83,0,11.07,1.271,15.68,3.78c4.641,2.5,8.21,6.07,10.761,10.71
		c2.56,4.62,3.84,9.92,3.84,15.909C306.65,540.252,306.5,542.242,306.21,544.021z M378.13,555.842c-2.46,4.84-5.83,8.59-10.09,11.25
		c-4.24,2.66-8.99,4-14.24,4c-4.51,0-8.5-0.939-11.939-2.779c-3.44-1.84-6.21-4.17-8.36-6.99v38.049h-15.529v-90.739H333.5v8.88
		c1.99-2.82,4.75-5.15,8.25-7.06c3.53-1.89,7.54-2.82,12.05-2.82c5.25,0,10,1.29,14.24,3.89c4.26,2.59,7.63,6.25,10.09,11.041
		c2.49,4.779,3.73,10.299,3.73,16.58C381.86,545.422,380.62,550.992,378.13,555.842z M453.19,570.092H437.55v-8.99
		c-2,2.881-4.75,5.281-8.279,7.141c-3.5,1.891-7.54,2.85-12.13,2.85c-5.17,0-9.9-1.34-14.16-4c-4.24-2.66-7.61-6.41-10.09-11.25
		c-2.46-4.85-3.71-10.42-3.71-16.699c0-6.211,1.25-11.721,3.71-16.531c2.479-4.819,5.85-8.5,10.09-11.09
		c4.26-2.6,9.01-3.89,14.27-3.89c4.57,0,8.58,0.931,12.021,2.78c3.439,1.84,6.21,4.17,8.279,6.99v-8.771h15.641V570.092z
		 M502.77,524.052h-4.1c-4.88,0-8.57,1.15-11.05,3.44c-2.46,2.289-3.71,6.279-3.71,11.98v30.619h-15.53v-61.46h15.53v9.54
		c2-3.26,4.6-5.811,7.811-7.65c3.219-1.84,6.899-2.77,11.049-2.77V524.052z M545.04,521.393h-13.761v29.729
		c0,2.061,0.49,3.57,1.49,4.5c1,0.91,2.681,1.381,5.061,1.381h7.21v13.09h-9.771c-13.09,0-19.629-6.369-19.629-19.08v-29.619h-7.32
		v-12.761h7.32v-15.19h15.639v15.19h13.761V521.393z M612.92,544.021H568c0.35,4.441,1.9,7.92,4.66,10.43
		c2.729,2.5,6.1,3.771,10.09,3.771c5.77,0,9.87-2.49,12.31-7.441h16.75c-1.77,5.932-5.189,10.791-10.199,14.602
		c-5.04,3.799-11.21,5.709-18.53,5.709c-5.92,0-11.22-1.32-15.92-3.949c-4.69-2.621-8.351-6.33-10.99-11.141
		c-2.62-4.811-3.92-10.359-3.92-16.641c0-6.369,1.28-11.939,3.88-16.75c2.57-4.819,6.21-8.5,10.87-11.09
		c4.66-2.6,10-3.89,16.08-3.89c5.84,0,11.08,1.271,15.689,3.78c4.641,2.5,8.211,6.07,10.761,10.71c2.55,4.62,3.84,9.92,3.84,15.909
		C613.37,540.252,613.21,542.242,612.92,544.021z M429.34,523.452c-2.529-1.44-5.22-2.171-8.1-2.171s-5.55,0.711-7.99,2.111
		c-2.439,1.389-4.41,3.459-5.939,6.159c-1.511,2.69-2.271,5.88-2.271,9.591c0,3.699,0.76,6.92,2.271,9.689
		c1.529,2.779,3.529,4.9,5.989,6.391c2.48,1.49,5.12,2.219,7.94,2.219c2.88,0,5.57-0.709,8.1-2.15c2.511-1.469,4.5-3.529,5.99-6.238
		c1.46-2.682,2.22-5.92,2.22-9.691c0-3.77-0.76-7.01-2.22-9.719C433.84,526.962,431.851,524.872,429.34,523.452z M357.721,523.393
		c-2.461-1.4-5.141-2.111-8.03-2.111c-2.82,0-5.46,0.73-7.94,2.171c-2.46,1.42-4.46,3.53-5.99,6.26
		c-1.51,2.729-2.26,5.95-2.26,9.649c0,3.701,0.75,6.92,2.26,9.65c1.53,2.73,3.53,4.811,5.99,6.279c2.48,1.441,5.12,2.15,7.94,2.15
		c2.89,0,5.569-0.729,8.03-2.219c2.489-1.49,4.479-3.59,5.989-6.32c1.53-2.73,2.29-5.99,2.29-9.76c0-3.711-0.76-6.9-2.29-9.591
		C362.2,526.852,360.21,524.781,357.721,523.393z M286.24,524.012c-2.82-2.42-6.25-3.619-10.31-3.619
		c-3.841,0-7.08,1.149-9.721,3.479c-2.62,2.36-4.22,5.569-4.819,9.72h29.18C290.5,529.602,289.061,526.402,286.24,524.012z
		 M363.71,529.552c-1.51-2.7-3.5-4.771-5.989-6.159c-2.461-1.4-5.141-2.111-8.03-2.111c-2.82,0-5.46,0.73-7.94,2.171
		c-2.46,1.42-4.46,3.53-5.99,6.26c-1.51,2.729-2.26,5.95-2.26,9.649c0,3.701,0.75,6.92,2.26,9.65c1.53,2.73,3.53,4.811,5.99,6.279
		c2.48,1.441,5.12,2.15,7.94,2.15c2.89,0,5.569-0.729,8.03-2.219c2.489-1.49,4.479-3.59,5.989-6.32c1.53-2.73,2.29-5.99,2.29-9.76
		C366,535.432,365.24,532.242,363.71,529.552z M435.33,529.643c-1.49-2.681-3.479-4.771-5.99-6.19c-2.529-1.44-5.22-2.171-8.1-2.171
		s-5.55,0.711-7.99,2.111c-2.439,1.389-4.41,3.459-5.939,6.159c-1.511,2.69-2.271,5.88-2.271,9.591c0,3.699,0.76,6.92,2.271,9.689
		c1.529,2.779,3.529,4.9,5.989,6.391c2.48,1.49,5.12,2.219,7.94,2.219c2.88,0,5.57-0.709,8.1-2.15c2.511-1.469,4.5-3.529,5.99-6.238
		c1.46-2.682,2.22-5.92,2.22-9.691C437.55,535.592,436.79,532.352,435.33,529.643z M435.33,529.643
		c-1.49-2.681-3.479-4.771-5.99-6.19c-2.529-1.44-5.22-2.171-8.1-2.171s-5.55,0.711-7.99,2.111c-2.439,1.389-4.41,3.459-5.939,6.159
		c-1.511,2.69-2.271,5.88-2.271,9.591c0,3.699,0.76,6.92,2.271,9.689c1.529,2.779,3.529,4.9,5.989,6.391
		c2.48,1.49,5.12,2.219,7.94,2.219c2.88,0,5.57-0.709,8.1-2.15c2.511-1.469,4.5-3.529,5.99-6.238c1.46-2.682,2.22-5.92,2.22-9.691
		C437.55,535.592,436.79,532.352,435.33,529.643z M363.71,529.552c-1.51-2.7-3.5-4.771-5.989-6.159
		c-2.461-1.4-5.141-2.111-8.03-2.111c-2.82,0-5.46,0.73-7.94,2.171c-2.46,1.42-4.46,3.53-5.99,6.26
		c-1.51,2.729-2.26,5.95-2.26,9.649c0,3.701,0.75,6.92,2.26,9.65c1.53,2.73,3.53,4.811,5.99,6.279c2.48,1.441,5.12,2.15,7.94,2.15
		c2.89,0,5.569-0.729,8.03-2.219c2.489-1.49,4.479-3.59,5.989-6.32c1.53-2.73,2.29-5.99,2.29-9.76
		C366,535.432,365.24,532.242,363.71,529.552z"/>
	<g>
		<path fill="#3399CC" d="M730.57,474.132h-40.11l-45.61,125.13h36.561l6.75-20.41l22.18-67.09l13.49,40.471h-0.11l8.811,26.619
			l6.739,20.41h36.74L730.57,474.132z"/>
		<path fill="#3399CC" d="M861.38,550.451c8.98-2.729,15.82-7.299,20.5-13.75c4.66-6.459,7.01-13.939,7.01-22.449
			c0-7.57-1.779-14.4-5.319-20.5c-3.561-6.109-8.84-10.9-15.801-14.38c-6.989-3.49-15.51-5.24-25.56-5.24h-54.84v125.13h34.78
			v-46.15h3.729l24.851,46.15H889.6L861.38,550.451z M850.02,525.962c-2.369,2.24-5.92,3.37-10.649,3.37h-17.22v-26.09h17.22
			c4.61,0,8.12,1.15,10.56,3.46c2.42,2.31,3.641,5.479,3.641,9.5C853.57,520.462,852.37,523.723,850.02,525.962z"/>
	</g>
	<path fill="#FF3333" d="M710.43,334.192c-26.489,0-47.979,21.47-47.979,47.97c0,10.47,3.37,20.15,9.069,28.05l1.891,2.48
		l37.33,49.42l38.12-51.25l0.31-0.42c0.05-0.07,0.11-0.16,0.16-0.23c5.71-7.9,9.07-17.58,9.07-28.05
		C758.4,355.662,736.93,334.192,710.43,334.192z M710.74,408.112c-14.34,0-25.95-11.63-25.95-25.95c0-14.34,11.61-25.96,25.95-25.96
		c14.33,0,25.939,11.62,25.939,25.96C736.68,396.482,725.07,408.112,710.74,408.112z"/>
	<path fill="#3399CC" d="M749.352,370.273l-0.18,0.236c0.052-0.073,0.108-0.164,0.162-0.236H749.352z"/>
</g>
<g>
	<path d="M1757.281,533.592h-29.17c0.568-4.15,2.199-7.359,4.809-9.72c2.641-2.33,5.861-3.479,9.721-3.479
		c4.061,0,7.5,1.199,10.32,3.619C1755.75,526.402,1757.191,529.602,1757.281,533.592z"/>
	<path d="M1595.33,529.643c-1.49-2.681-3.479-4.771-5.99-6.19c-2.529-1.44-5.219-2.171-8.1-2.171c-2.879,0-5.549,0.711-7.99,2.111
		c-2.439,1.389-4.41,3.459-5.939,6.159c-1.51,2.69-2.27,5.88-2.27,9.591c0,3.699,0.76,6.92,2.27,9.689
		c1.529,2.779,3.529,4.9,5.99,6.391c2.48,1.49,5.119,2.219,7.939,2.219c2.881,0,5.57-0.709,8.1-2.15
		c2.512-1.469,4.5-3.529,5.99-6.238c1.461-2.682,2.221-5.92,2.221-9.691C1597.551,535.592,1596.791,532.352,1595.33,529.643z
		 M1595.33,529.643c-1.49-2.681-3.479-4.771-5.99-6.19c-2.529-1.44-5.219-2.171-8.1-2.171c-2.879,0-5.549,0.711-7.99,2.111
		c-2.439,1.389-4.41,3.459-5.939,6.159c-1.51,2.69-2.27,5.88-2.27,9.591c0,3.699,0.76,6.92,2.27,9.689
		c1.529,2.779,3.529,4.9,5.99,6.391c2.48,1.49,5.119,2.219,7.939,2.219c2.881,0,5.57-0.709,8.1-2.15
		c2.512-1.469,4.5-3.529,5.99-6.238c1.461-2.682,2.221-5.92,2.221-9.691C1597.551,535.592,1596.791,532.352,1595.33,529.643z
		 M1446.24,524.012c-2.82-2.42-6.25-3.619-10.309-3.619c-3.842,0-7.08,1.149-9.721,3.479c-2.621,2.36-4.221,5.569-4.82,9.72h29.18
		C1450.5,529.602,1449.061,526.402,1446.24,524.012z M1523.711,529.552c-1.51-2.7-3.5-4.771-5.99-6.159
		c-2.461-1.4-5.141-2.111-8.029-2.111c-2.82,0-5.461,0.73-7.941,2.171c-2.459,1.42-4.459,3.53-5.99,6.26
		c-1.51,2.729-2.26,5.95-2.26,9.649c0,3.701,0.75,6.92,2.26,9.65c1.531,2.73,3.531,4.811,5.99,6.279
		c2.48,1.441,5.121,2.15,7.941,2.15c2.889,0,5.568-0.729,8.029-2.219c2.49-1.49,4.48-3.59,5.99-6.32
		c1.529-2.73,2.289-5.99,2.289-9.76C1526,535.432,1525.24,532.242,1523.711,529.552z M1595.33,529.643
		c-1.49-2.681-3.479-4.771-5.99-6.19c-2.529-1.44-5.219-2.171-8.1-2.171c-2.879,0-5.549,0.711-7.99,2.111
		c-2.439,1.389-4.41,3.459-5.939,6.159c-1.51,2.69-2.27,5.88-2.27,9.591c0,3.699,0.76,6.92,2.27,9.689
		c1.529,2.779,3.529,4.9,5.99,6.391c2.48,1.49,5.119,2.219,7.939,2.219c2.881,0,5.57-0.709,8.1-2.15
		c2.512-1.469,4.5-3.529,5.99-6.238c1.461-2.682,2.221-5.92,2.221-9.691C1597.551,535.592,1596.791,532.352,1595.33,529.643z
		 M1595.33,529.643c-1.49-2.681-3.479-4.771-5.99-6.19c-2.529-1.44-5.219-2.171-8.1-2.171c-2.879,0-5.549,0.711-7.99,2.111
		c-2.439,1.389-4.41,3.459-5.939,6.159c-1.51,2.69-2.27,5.88-2.27,9.591c0,3.699,0.76,6.92,2.27,9.689
		c1.529,2.779,3.529,4.9,5.99,6.391c2.48,1.49,5.119,2.219,7.939,2.219c2.881,0,5.57-0.709,8.1-2.15
		c2.512-1.469,4.5-3.529,5.99-6.238c1.461-2.682,2.221-5.92,2.221-9.691C1597.551,535.592,1596.791,532.352,1595.33,529.643z
		 M1523.711,529.552c-1.51-2.7-3.5-4.771-5.99-6.159c-2.461-1.4-5.141-2.111-8.029-2.111c-2.82,0-5.461,0.73-7.941,2.171
		c-2.459,1.42-4.459,3.53-5.99,6.26c-1.51,2.729-2.26,5.95-2.26,9.649c0,3.701,0.75,6.92,2.26,9.65
		c1.531,2.73,3.531,4.811,5.99,6.279c2.48,1.441,5.121,2.15,7.941,2.15c2.889,0,5.568-0.729,8.029-2.219
		c2.49-1.49,4.48-3.59,5.99-6.32c1.529-2.73,2.289-5.99,2.289-9.76C1526,535.432,1525.24,532.242,1523.711,529.552z
		 M1446.24,524.012c-2.82-2.42-6.25-3.619-10.309-3.619c-3.842,0-7.08,1.149-9.721,3.479c-2.621,2.36-4.221,5.569-4.82,9.72h29.18
		C1450.5,529.602,1449.061,526.402,1446.24,524.012z M1758.611,476.912h-381.59c-14.701,0-26.621,11.92-26.621,26.619v82.09
		c0,14.701,11.92,26.621,26.621,26.621h381.59c14.709,0,26.629-11.92,26.629-26.621v-82.09
		C1785.24,488.832,1773.32,476.912,1758.611,476.912z M1399.102,524.052h-4.111c-4.879,0-8.559,1.15-11.039,3.44
		c-2.471,2.289-3.711,6.279-3.711,11.98v30.619h-15.529v-61.46h15.529v9.54c2-3.26,4.59-5.811,7.83-7.65
		c3.201-1.84,6.881-2.77,11.031-2.77V524.052z M1466.211,544.021h-44.93c0.379,4.441,1.93,7.92,4.66,10.43
		c2.729,2.5,6.1,3.771,10.1,3.771c5.77,0,9.869-2.49,12.311-7.441h16.75c-1.781,5.932-5.17,10.791-10.211,14.602
		c-5.029,3.799-11.199,5.709-18.52,5.709c-5.92,0-11.23-1.32-15.93-3.949c-4.682-2.621-8.34-6.33-10.98-11.141
		c-2.621-4.811-3.93-10.359-3.93-16.641c0-6.369,1.289-11.939,3.879-16.75c2.6-4.819,6.221-8.5,10.871-11.09
		c4.66-2.6,10.029-3.89,16.09-3.89c5.83,0,11.07,1.271,15.68,3.78c4.641,2.5,8.209,6.07,10.76,10.71
		c2.561,4.62,3.84,9.92,3.84,15.909C1466.65,540.252,1466.5,542.242,1466.211,544.021z M1538.131,555.842
		c-2.461,4.84-5.83,8.59-10.09,11.25c-4.24,2.66-8.99,4-14.24,4c-4.51,0-8.5-0.939-11.939-2.779c-3.441-1.84-6.211-4.17-8.361-6.99
		v38.049h-15.529v-90.739h15.529v8.88c1.99-2.82,4.75-5.15,8.25-7.06c3.531-1.89,7.541-2.82,12.051-2.82c5.25,0,10,1.29,14.24,3.89
		c4.26,2.59,7.629,6.25,10.09,11.041c2.49,4.779,3.73,10.299,3.73,16.58C1541.861,545.422,1540.621,550.992,1538.131,555.842z
		 M1613.191,570.092h-15.641v-8.99c-2,2.881-4.75,5.281-8.279,7.141c-3.5,1.891-7.541,2.85-12.131,2.85c-5.17,0-9.9-1.34-14.16-4
		c-4.24-2.66-7.609-6.41-10.09-11.25c-2.459-4.85-3.709-10.42-3.709-16.699c0-6.211,1.25-11.721,3.709-16.531
		c2.48-4.819,5.85-8.5,10.09-11.09c4.26-2.6,9.01-3.89,14.27-3.89c4.57,0,8.58,0.931,12.021,2.78c3.439,1.84,6.209,4.17,8.279,6.99
		v-8.771h15.641V570.092z M1662.771,524.052h-4.102c-4.879,0-8.568,1.15-11.049,3.44c-2.461,2.289-3.711,6.279-3.711,11.98v30.619
		h-15.529v-61.46h15.529v9.54c2-3.26,4.6-5.811,7.811-7.65c3.221-1.84,6.9-2.77,11.051-2.77V524.052z M1705.041,521.393h-13.76
		v29.729c0,2.061,0.49,3.57,1.49,4.5c1,0.91,2.68,1.381,5.059,1.381h7.211v13.09h-9.77c-13.09,0-19.631-6.369-19.631-19.08v-29.619
		h-7.32v-12.761h7.32v-15.19h15.641v15.19h13.76V521.393z M1772.92,544.021H1728c0.35,4.441,1.9,7.92,4.66,10.43
		c2.73,2.5,6.1,3.771,10.09,3.771c5.77,0,9.871-2.49,12.311-7.441h16.75c-1.77,5.932-5.189,10.791-10.199,14.602
		c-5.041,3.799-11.211,5.709-18.531,5.709c-5.92,0-11.219-1.32-15.92-3.949c-4.689-2.621-8.35-6.33-10.99-11.141
		c-2.619-4.811-3.92-10.359-3.92-16.641c0-6.369,1.281-11.939,3.881-16.75c2.57-4.819,6.209-8.5,10.869-11.09
		c4.66-2.6,10-3.89,16.08-3.89c5.84,0,11.08,1.271,15.689,3.78c4.641,2.5,8.211,6.07,10.762,10.71c2.549,4.62,3.84,9.92,3.84,15.909
		C1773.371,540.252,1773.211,542.242,1772.92,544.021z M1589.34,523.452c-2.529-1.44-5.219-2.171-8.1-2.171
		c-2.879,0-5.549,0.711-7.99,2.111c-2.439,1.389-4.41,3.459-5.939,6.159c-1.51,2.69-2.27,5.88-2.27,9.591
		c0,3.699,0.76,6.92,2.27,9.689c1.529,2.779,3.529,4.9,5.99,6.391c2.48,1.49,5.119,2.219,7.939,2.219c2.881,0,5.57-0.709,8.1-2.15
		c2.512-1.469,4.5-3.529,5.99-6.238c1.461-2.682,2.221-5.92,2.221-9.691c0-3.77-0.76-7.01-2.221-9.719
		C1593.84,526.962,1591.852,524.872,1589.34,523.452z M1517.721,523.393c-2.461-1.4-5.141-2.111-8.029-2.111
		c-2.82,0-5.461,0.73-7.941,2.171c-2.459,1.42-4.459,3.53-5.99,6.26c-1.51,2.729-2.26,5.95-2.26,9.649c0,3.701,0.75,6.92,2.26,9.65
		c1.531,2.73,3.531,4.811,5.99,6.279c2.48,1.441,5.121,2.15,7.941,2.15c2.889,0,5.568-0.729,8.029-2.219
		c2.49-1.49,4.48-3.59,5.99-6.32c1.529-2.73,2.289-5.99,2.289-9.76c0-3.711-0.76-6.9-2.289-9.591
		C1522.201,526.852,1520.211,524.781,1517.721,523.393z M1446.24,524.012c-2.82-2.42-6.25-3.619-10.309-3.619
		c-3.842,0-7.08,1.149-9.721,3.479c-2.621,2.36-4.221,5.569-4.82,9.72h29.18C1450.5,529.602,1449.061,526.402,1446.24,524.012z
		 M1523.711,529.552c-1.51-2.7-3.5-4.771-5.99-6.159c-2.461-1.4-5.141-2.111-8.029-2.111c-2.82,0-5.461,0.73-7.941,2.171
		c-2.459,1.42-4.459,3.53-5.99,6.26c-1.51,2.729-2.26,5.95-2.26,9.649c0,3.701,0.75,6.92,2.26,9.65
		c1.531,2.73,3.531,4.811,5.99,6.279c2.48,1.441,5.121,2.15,7.941,2.15c2.889,0,5.568-0.729,8.029-2.219
		c2.49-1.49,4.48-3.59,5.99-6.32c1.529-2.73,2.289-5.99,2.289-9.76C1526,535.432,1525.24,532.242,1523.711,529.552z
		 M1595.33,529.643c-1.49-2.681-3.479-4.771-5.99-6.19c-2.529-1.44-5.219-2.171-8.1-2.171c-2.879,0-5.549,0.711-7.99,2.111
		c-2.439,1.389-4.41,3.459-5.939,6.159c-1.51,2.69-2.27,5.88-2.27,9.591c0,3.699,0.76,6.92,2.27,9.689
		c1.529,2.779,3.529,4.9,5.99,6.391c2.48,1.49,5.119,2.219,7.939,2.219c2.881,0,5.57-0.709,8.1-2.15
		c2.512-1.469,4.5-3.529,5.99-6.238c1.461-2.682,2.221-5.92,2.221-9.691C1597.551,535.592,1596.791,532.352,1595.33,529.643z
		 M1595.33,529.643c-1.49-2.681-3.479-4.771-5.99-6.19c-2.529-1.44-5.219-2.171-8.1-2.171c-2.879,0-5.549,0.711-7.99,2.111
		c-2.439,1.389-4.41,3.459-5.939,6.159c-1.51,2.69-2.27,5.88-2.27,9.591c0,3.699,0.76,6.92,2.27,9.689
		c1.529,2.779,3.529,4.9,5.99,6.391c2.48,1.49,5.119,2.219,7.939,2.219c2.881,0,5.57-0.709,8.1-2.15
		c2.512-1.469,4.5-3.529,5.99-6.238c1.461-2.682,2.221-5.92,2.221-9.691C1597.551,535.592,1596.791,532.352,1595.33,529.643z
		 M1523.711,529.552c-1.51-2.7-3.5-4.771-5.99-6.159c-2.461-1.4-5.141-2.111-8.029-2.111c-2.82,0-5.461,0.73-7.941,2.171
		c-2.459,1.42-4.459,3.53-5.99,6.26c-1.51,2.729-2.26,5.95-2.26,9.649c0,3.701,0.75,6.92,2.26,9.65
		c1.531,2.73,3.531,4.811,5.99,6.279c2.48,1.441,5.121,2.15,7.941,2.15c2.889,0,5.568-0.729,8.029-2.219
		c2.49-1.49,4.48-3.59,5.99-6.32c1.529-2.73,2.289-5.99,2.289-9.76C1526,535.432,1525.24,532.242,1523.711,529.552z"/>
	<g>
		<path d="M1890.57,474.132h-40.109l-45.611,125.13h36.561l6.75-20.41l22.18-67.09l13.49,40.471h-0.109l8.811,26.619l6.738,20.41
			h36.74L1890.57,474.132z"/>
		<path d="M2021.381,550.451c8.98-2.729,15.82-7.299,20.5-13.75c4.66-6.459,7.01-13.939,7.01-22.449c0-7.57-1.779-14.4-5.32-20.5
			c-3.561-6.109-8.84-10.9-15.801-14.38c-6.988-3.49-15.51-5.24-25.559-5.24h-54.84v125.13h34.779v-46.15h3.73l24.85,46.15h38.869
			L2021.381,550.451z M2010.02,525.962c-2.369,2.24-5.92,3.37-10.648,3.37h-17.221v-26.09h17.221c4.609,0,8.119,1.15,10.559,3.46
			c2.42,2.31,3.641,5.479,3.641,9.5C2013.57,520.462,2012.371,523.723,2010.02,525.962z"/>
	</g>
	<path d="M1870.43,334.192c-26.488,0-47.979,21.47-47.979,47.97c0,10.47,3.369,20.15,9.068,28.05l1.891,2.48l37.33,49.42
		l38.121-51.25l0.309-0.42c0.051-0.07,0.111-0.16,0.16-0.23c5.711-7.9,9.07-17.58,9.07-28.05
		C1918.4,355.662,1896.93,334.192,1870.43,334.192z M1870.74,408.112c-14.34,0-25.949-11.63-25.949-25.95
		c0-14.34,11.609-25.96,25.949-25.96c14.33,0,25.939,11.62,25.939,25.96C1896.68,396.482,1885.07,408.112,1870.74,408.112z"/>
	<path d="M1909.352,370.273l-0.18,0.236c0.053-0.073,0.109-0.164,0.162-0.236H1909.352z"/>
</g>
<g>
	<path fill="#3399CC" d="M2779.306,478.301h-88.303l-100.412,275.475h80.49l14.857-44.932l48.83-147.699l29.697,89.094h-0.242
		l19.398,58.605l14.836,44.932h80.883L2779.306,478.301z"/>
	<path fill="#3399CC" d="M3067.284,646.32c19.768-6.01,34.826-16.072,45.129-30.271c10.26-14.221,15.432-30.689,15.432-49.422
		c0-16.666-3.916-31.701-11.711-45.131c-7.838-13.451-19.461-23.996-34.783-31.658c-15.389-7.684-34.146-11.537-56.27-11.537
		h-120.73v275.475h76.568v-101.6h8.211l54.709,101.6h85.57L3067.284,646.32z M3042.272,592.406
		c-5.215,4.932-13.033,7.42-23.445,7.42h-37.908v-57.439h37.908c10.15,0,17.877,2.533,23.248,7.619
		c5.328,5.084,8.016,12.063,8.016,20.914C3050.091,580.297,3047.446,587.475,3042.272,592.406z"/>
	<path fill="#FF3333" d="M2734.968,170.225c-58.316,0-105.627,47.267-105.627,105.606c0,23.049,7.418,44.359,19.965,61.751
		l4.162,5.46l82.182,108.797l83.92-112.826l0.682-0.924c0.111-0.153,0.244-0.353,0.355-0.507
		c12.568-17.392,19.967-38.702,19.967-61.751C2840.573,217.491,2793.306,170.225,2734.968,170.225z M2735.649,332.959
		c-31.568,0-57.129-25.604-57.129-57.128c0-31.571,25.561-57.151,57.129-57.151c31.549,0,57.107,25.58,57.107,57.151
		C2792.757,307.355,2767.198,332.959,2735.649,332.959z"/>
	<path fill="#3399CC" d="M2820.653,249.658l-0.396,0.521c0.115-0.161,0.238-0.36,0.355-0.521H2820.653z"/>
</g>
<g>
	<g>
		<path d="M3931.306,478.301h-88.303l-100.412,275.475h80.49l14.857-44.932l48.83-147.699l29.697,89.094h-0.242l19.398,58.605
			l14.836,44.932h80.883L3931.306,478.301z"/>
		<path d="M4219.284,646.32c19.768-6.01,34.826-16.072,45.129-30.271c10.26-14.221,15.432-30.689,15.432-49.422
			c0-16.666-3.916-31.701-11.711-45.131c-7.838-13.451-19.461-23.996-34.783-31.658c-15.389-7.684-34.146-11.537-56.27-11.537
			h-120.73v275.475h76.568v-101.6h8.211l54.709,101.6h85.57L4219.284,646.32z M4194.272,592.406
			c-5.215,4.932-13.033,7.42-23.445,7.42h-37.908v-57.439h37.908c10.15,0,17.877,2.533,23.248,7.619
			c5.328,5.084,8.016,12.063,8.016,20.914C4202.091,580.297,4199.446,587.475,4194.272,592.406z"/>
	</g>
	<path d="M3886.968,170.225c-58.316,0-105.627,47.267-105.627,105.606c0,23.049,7.418,44.359,19.965,61.751l4.162,5.46
		l82.182,108.797l83.92-112.826l0.682-0.924c0.111-0.153,0.244-0.353,0.355-0.507c12.568-17.392,19.967-38.702,19.967-61.751
		C3992.573,217.491,3945.306,170.225,3886.968,170.225z M3887.649,332.959c-31.568,0-57.129-25.604-57.129-57.128
		c0-31.571,25.561-57.151,57.129-57.151c31.549,0,57.107,25.58,57.107,57.151C3944.757,307.355,3919.198,332.959,3887.649,332.959z"
		/>
	<path d="M3972.653,249.658l-0.396,0.521c0.115-0.161,0.238-0.36,0.355-0.521H3972.653z"/>
</g>
<g>
	<path fill="#42AAC3" d="M602.243,1678.883H478.285l-140.956,386.706H450.32l20.856-63.074l68.547-207.338l41.688,125.068h-0.34
		l27.231,82.27l20.826,63.074h113.542L602.243,1678.883z"/>
	<path fill="#FF3333" d="M540.016,1246.411c-81.863,0-148.277,66.352-148.277,148.248c0,32.355,10.413,62.271,28.026,86.686
		l5.843,7.664l115.364,152.728l117.806-158.384l0.957-1.297c0.155-0.216,0.343-0.495,0.499-0.711
		c17.643-24.414,28.028-54.33,28.028-86.686C688.262,1312.763,621.908,1246.411,540.016,1246.411z M540.972,1474.854
		c-44.314,0-80.196-35.941-80.196-80.194c0-44.319,35.882-80.228,80.196-80.228c44.288,0,80.167,35.908,80.167,80.228
		C621.139,1438.912,585.26,1474.854,540.972,1474.854z"/>
</g>
<g>
	<path d="M1762.243,1678.883h-123.957l-140.957,386.706h112.99l20.856-63.074l68.547-207.338l41.688,125.068h-0.34l27.231,82.27
		l20.826,63.074h113.542L1762.243,1678.883z"/>
	<path d="M1700.016,1246.411c-81.863,0-148.277,66.352-148.277,148.248c0,32.355,10.413,62.271,28.026,86.686l5.843,7.664
		l115.364,152.728l117.806-158.384l0.957-1.297c0.155-0.216,0.343-0.495,0.499-0.711c17.643-24.414,28.028-54.33,28.028-86.686
		C1848.262,1312.763,1781.908,1246.411,1700.016,1246.411z M1700.972,1474.854c-44.314,0-80.196-35.941-80.196-80.194
		c0-44.319,35.882-80.228,80.196-80.228c44.288,0,80.167,35.908,80.167,80.228
		C1781.139,1438.912,1745.26,1474.854,1700.972,1474.854z"/>
</g>
<g>
	<path fill="#FFFFFF" d="M2917.281,1657.86h-29.17c0.568-4.15,2.199-7.36,4.809-9.72c2.641-2.33,5.861-3.48,9.721-3.48
		c4.061,0,7.5,1.199,10.32,3.619C2915.75,1650.67,2917.191,1653.87,2917.281,1657.86z"/>
	<path fill="#FFFFFF" d="M2755.33,1653.91c-1.49-2.68-3.479-4.77-5.99-6.189c-2.529-1.441-5.219-2.171-8.1-2.171
		c-2.879,0-5.549,0.71-7.99,2.11c-2.439,1.39-4.41,3.46-5.939,6.16c-1.51,2.689-2.27,5.88-2.27,9.59c0,3.7,0.76,6.92,2.27,9.689
		c1.529,2.78,3.529,4.9,5.99,6.391c2.48,1.49,5.119,2.22,7.939,2.22c2.881,0,5.57-0.71,8.1-2.15c2.512-1.47,4.5-3.529,5.99-6.239
		c1.461-2.681,2.221-5.92,2.221-9.69C2757.551,1659.86,2756.791,1656.62,2755.33,1653.91z M2755.33,1653.91
		c-1.49-2.68-3.479-4.77-5.99-6.189c-2.529-1.441-5.219-2.171-8.1-2.171c-2.879,0-5.549,0.71-7.99,2.11
		c-2.439,1.39-4.41,3.46-5.939,6.16c-1.51,2.689-2.27,5.88-2.27,9.59c0,3.7,0.76,6.92,2.27,9.689c1.529,2.78,3.529,4.9,5.99,6.391
		c2.48,1.49,5.119,2.22,7.939,2.22c2.881,0,5.57-0.71,8.1-2.15c2.512-1.47,4.5-3.529,5.99-6.239c1.461-2.681,2.221-5.92,2.221-9.69
		C2757.551,1659.86,2756.791,1656.62,2755.33,1653.91z M2606.24,1648.279c-2.82-2.42-6.25-3.619-10.309-3.619
		c-3.842,0-7.08,1.15-9.721,3.48c-2.621,2.359-4.221,5.569-4.82,9.72h29.18C2610.5,1653.87,2609.061,1650.67,2606.24,1648.279z
		 M2683.711,1653.82c-1.51-2.7-3.5-4.771-5.99-6.16c-2.461-1.4-5.141-2.11-8.029-2.11c-2.82,0-5.461,0.729-7.941,2.171
		c-2.459,1.42-4.459,3.529-5.99,6.26c-1.51,2.729-2.26,5.949-2.26,9.649s0.75,6.92,2.26,9.65c1.531,2.729,3.531,4.81,5.99,6.279
		c2.48,1.44,5.121,2.15,7.941,2.15c2.889,0,5.568-0.729,8.029-2.22c2.49-1.49,4.48-3.59,5.99-6.32
		c1.529-2.729,2.289-5.99,2.289-9.76C2686,1659.7,2685.24,1656.51,2683.711,1653.82z M2755.33,1653.91
		c-1.49-2.68-3.479-4.77-5.99-6.189c-2.529-1.441-5.219-2.171-8.1-2.171c-2.879,0-5.549,0.71-7.99,2.11
		c-2.439,1.39-4.41,3.46-5.939,6.16c-1.51,2.689-2.27,5.88-2.27,9.59c0,3.7,0.76,6.92,2.27,9.689c1.529,2.78,3.529,4.9,5.99,6.391
		c2.48,1.49,5.119,2.22,7.939,2.22c2.881,0,5.57-0.71,8.1-2.15c2.512-1.47,4.5-3.529,5.99-6.239c1.461-2.681,2.221-5.92,2.221-9.69
		C2757.551,1659.86,2756.791,1656.62,2755.33,1653.91z M2755.33,1653.91c-1.49-2.68-3.479-4.77-5.99-6.189
		c-2.529-1.441-5.219-2.171-8.1-2.171c-2.879,0-5.549,0.71-7.99,2.11c-2.439,1.39-4.41,3.46-5.939,6.16
		c-1.51,2.689-2.27,5.88-2.27,9.59c0,3.7,0.76,6.92,2.27,9.689c1.529,2.78,3.529,4.9,5.99,6.391c2.48,1.49,5.119,2.22,7.939,2.22
		c2.881,0,5.57-0.71,8.1-2.15c2.512-1.47,4.5-3.529,5.99-6.239c1.461-2.681,2.221-5.92,2.221-9.69
		C2757.551,1659.86,2756.791,1656.62,2755.33,1653.91z M2683.711,1653.82c-1.51-2.7-3.5-4.771-5.99-6.16
		c-2.461-1.4-5.141-2.11-8.029-2.11c-2.82,0-5.461,0.729-7.941,2.171c-2.459,1.42-4.459,3.529-5.99,6.26
		c-1.51,2.729-2.26,5.949-2.26,9.649s0.75,6.92,2.26,9.65c1.531,2.729,3.531,4.81,5.99,6.279c2.48,1.44,5.121,2.15,7.941,2.15
		c2.889,0,5.568-0.729,8.029-2.22c2.49-1.49,4.48-3.59,5.99-6.32c1.529-2.729,2.289-5.99,2.289-9.76
		C2686,1659.7,2685.24,1656.51,2683.711,1653.82z M2606.24,1648.279c-2.82-2.42-6.25-3.619-10.309-3.619
		c-3.842,0-7.08,1.15-9.721,3.48c-2.621,2.359-4.221,5.569-4.82,9.72h29.18C2610.5,1653.87,2609.061,1650.67,2606.24,1648.279z
		 M2918.611,1601.18h-381.59c-14.701,0-26.621,11.92-26.621,26.62v82.09c0,14.7,11.92,26.62,26.621,26.62h381.59
		c14.709,0,26.629-11.92,26.629-26.62v-82.09C2945.24,1613.1,2933.32,1601.18,2918.611,1601.18z M2559.102,1648.32h-4.111
		c-4.879,0-8.559,1.15-11.039,3.439c-2.471,2.29-3.711,6.28-3.711,11.98v30.62h-15.529v-61.46h15.529v9.539
		c2-3.26,4.59-5.81,7.83-7.649c3.201-1.84,6.881-2.771,11.031-2.771V1648.32z M2626.211,1668.29h-44.93
		c0.379,4.44,1.93,7.92,4.66,10.43c2.729,2.5,6.1,3.771,10.1,3.771c5.77,0,9.869-2.49,12.311-7.44h16.75
		c-1.781,5.931-5.17,10.79-10.211,14.601c-5.029,3.8-11.199,5.71-18.52,5.71c-5.92,0-11.23-1.32-15.93-3.95
		c-4.682-2.62-8.34-6.33-10.98-11.141c-2.621-4.81-3.93-10.359-3.93-16.64c0-6.37,1.289-11.94,3.879-16.75
		c2.6-4.819,6.221-8.5,10.871-11.09c4.66-2.601,10.029-3.89,16.09-3.89c5.83,0,11.07,1.27,15.68,3.779
		c4.641,2.5,8.209,6.07,10.76,10.711c2.561,4.619,3.84,9.92,3.84,15.909C2626.65,1664.52,2626.5,1666.51,2626.211,1668.29z
		 M2698.131,1680.11c-2.461,4.84-5.83,8.59-10.09,11.25c-4.24,2.659-8.99,4-14.24,4c-4.51,0-8.5-0.94-11.939-2.78
		c-3.441-1.84-6.211-4.17-8.361-6.99v38.05h-15.529V1632.9h15.529v8.879c1.99-2.819,4.75-5.149,8.25-7.059
		c3.531-1.891,7.541-2.82,12.051-2.82c5.25,0,10,1.289,14.24,3.89c4.26,2.59,7.629,6.25,10.09,11.04
		c2.49,4.779,3.73,10.3,3.73,16.58S2700.621,1675.26,2698.131,1680.11z M2773.191,1694.36h-15.641v-8.99
		c-2,2.88-4.75,5.28-8.279,7.14c-3.5,1.891-7.541,2.851-12.131,2.851c-5.17,0-9.9-1.341-14.16-4c-4.24-2.66-7.609-6.41-10.09-11.25
		c-2.459-4.851-3.709-10.42-3.709-16.7c0-6.21,1.25-11.721,3.709-16.53c2.48-4.819,5.85-8.5,10.09-11.09
		c4.26-2.601,9.01-3.89,14.27-3.89c4.57,0,8.58,0.93,12.021,2.779c3.439,1.84,6.209,4.17,8.279,6.99v-8.77h15.641V1694.36z
		 M2822.771,1648.32h-4.102c-4.879,0-8.568,1.15-11.049,3.439c-2.461,2.29-3.711,6.28-3.711,11.98v30.62h-15.529v-61.46h15.529
		v9.539c2-3.26,4.6-5.81,7.811-7.649c3.221-1.84,6.9-2.771,11.051-2.771V1648.32z M2865.041,1645.66h-13.76v29.729
		c0,2.061,0.49,3.57,1.49,4.5c1,0.91,2.68,1.38,5.059,1.38h7.211v13.091h-9.77c-13.09,0-19.631-6.37-19.631-19.08v-29.62h-7.32
		v-12.76h7.32v-15.19h15.641v15.19h13.76V1645.66z M2932.92,1668.29H2888c0.35,4.44,1.9,7.92,4.66,10.43
		c2.73,2.5,6.1,3.771,10.09,3.771c5.77,0,9.871-2.49,12.311-7.44h16.75c-1.77,5.931-5.189,10.79-10.199,14.601
		c-5.041,3.8-11.211,5.71-18.531,5.71c-5.92,0-11.219-1.32-15.92-3.95c-4.689-2.62-8.35-6.33-10.99-11.141
		c-2.619-4.81-3.92-10.359-3.92-16.64c0-6.37,1.281-11.94,3.881-16.75c2.57-4.819,6.209-8.5,10.869-11.09
		c4.66-2.601,10-3.89,16.08-3.89c5.84,0,11.08,1.27,15.689,3.779c4.641,2.5,8.211,6.07,10.762,10.711
		c2.549,4.619,3.84,9.92,3.84,15.909C2933.371,1664.52,2933.211,1666.51,2932.92,1668.29z M2749.34,1647.721
		c-2.529-1.441-5.219-2.171-8.1-2.171c-2.879,0-5.549,0.71-7.99,2.11c-2.439,1.39-4.41,3.46-5.939,6.16
		c-1.51,2.689-2.27,5.88-2.27,9.59c0,3.7,0.76,6.92,2.27,9.689c1.529,2.78,3.529,4.9,5.99,6.391c2.48,1.49,5.119,2.22,7.939,2.22
		c2.881,0,5.57-0.71,8.1-2.15c2.512-1.47,4.5-3.529,5.99-6.239c1.461-2.681,2.221-5.92,2.221-9.69c0-3.77-0.76-7.01-2.221-9.72
		C2753.84,1651.23,2751.852,1649.141,2749.34,1647.721z M2677.721,1647.66c-2.461-1.4-5.141-2.11-8.029-2.11
		c-2.82,0-5.461,0.729-7.941,2.171c-2.459,1.42-4.459,3.529-5.99,6.26c-1.51,2.729-2.26,5.949-2.26,9.649s0.75,6.92,2.26,9.65
		c1.531,2.729,3.531,4.81,5.99,6.279c2.48,1.44,5.121,2.15,7.941,2.15c2.889,0,5.568-0.729,8.029-2.22
		c2.49-1.49,4.48-3.59,5.99-6.32c1.529-2.729,2.289-5.99,2.289-9.76c0-3.71-0.76-6.9-2.289-9.59
		C2682.201,1651.12,2680.211,1649.05,2677.721,1647.66z M2606.24,1648.279c-2.82-2.42-6.25-3.619-10.309-3.619
		c-3.842,0-7.08,1.15-9.721,3.48c-2.621,2.359-4.221,5.569-4.82,9.72h29.18C2610.5,1653.87,2609.061,1650.67,2606.24,1648.279z
		 M2683.711,1653.82c-1.51-2.7-3.5-4.771-5.99-6.16c-2.461-1.4-5.141-2.11-8.029-2.11c-2.82,0-5.461,0.729-7.941,2.171
		c-2.459,1.42-4.459,3.529-5.99,6.26c-1.51,2.729-2.26,5.949-2.26,9.649s0.75,6.92,2.26,9.65c1.531,2.729,3.531,4.81,5.99,6.279
		c2.48,1.44,5.121,2.15,7.941,2.15c2.889,0,5.568-0.729,8.029-2.22c2.49-1.49,4.48-3.59,5.99-6.32
		c1.529-2.729,2.289-5.99,2.289-9.76C2686,1659.7,2685.24,1656.51,2683.711,1653.82z M2755.33,1653.91
		c-1.49-2.68-3.479-4.77-5.99-6.189c-2.529-1.441-5.219-2.171-8.1-2.171c-2.879,0-5.549,0.71-7.99,2.11
		c-2.439,1.39-4.41,3.46-5.939,6.16c-1.51,2.689-2.27,5.88-2.27,9.59c0,3.7,0.76,6.92,2.27,9.689c1.529,2.78,3.529,4.9,5.99,6.391
		c2.48,1.49,5.119,2.22,7.939,2.22c2.881,0,5.57-0.71,8.1-2.15c2.512-1.47,4.5-3.529,5.99-6.239c1.461-2.681,2.221-5.92,2.221-9.69
		C2757.551,1659.86,2756.791,1656.62,2755.33,1653.91z M2755.33,1653.91c-1.49-2.68-3.479-4.77-5.99-6.189
		c-2.529-1.441-5.219-2.171-8.1-2.171c-2.879,0-5.549,0.71-7.99,2.11c-2.439,1.39-4.41,3.46-5.939,6.16
		c-1.51,2.689-2.27,5.88-2.27,9.59c0,3.7,0.76,6.92,2.27,9.689c1.529,2.78,3.529,4.9,5.99,6.391c2.48,1.49,5.119,2.22,7.939,2.22
		c2.881,0,5.57-0.71,8.1-2.15c2.512-1.47,4.5-3.529,5.99-6.239c1.461-2.681,2.221-5.92,2.221-9.69
		C2757.551,1659.86,2756.791,1656.62,2755.33,1653.91z M2683.711,1653.82c-1.51-2.7-3.5-4.771-5.99-6.16
		c-2.461-1.4-5.141-2.11-8.029-2.11c-2.82,0-5.461,0.729-7.941,2.171c-2.459,1.42-4.459,3.529-5.99,6.26
		c-1.51,2.729-2.26,5.949-2.26,9.649s0.75,6.92,2.26,9.65c1.531,2.729,3.531,4.81,5.99,6.279c2.48,1.44,5.121,2.15,7.941,2.15
		c2.889,0,5.568-0.729,8.029-2.22c2.49-1.49,4.48-3.59,5.99-6.32c1.529-2.729,2.289-5.99,2.289-9.76
		C2686,1659.7,2685.24,1656.51,2683.711,1653.82z"/>
	<g>
		<path fill="#FFFFFF" d="M3050.57,1598.4h-40.109l-45.611,125.13h36.561l6.75-20.41l22.18-67.091l13.49,40.471h-0.109l8.811,26.62
			l6.738,20.41h36.74L3050.57,1598.4z"/>
		<path fill="#FFFFFF" d="M3181.381,1674.72c8.98-2.729,15.82-7.3,20.5-13.75c4.66-6.46,7.01-13.94,7.01-22.45
			c0-7.569-1.779-14.399-5.32-20.5c-3.561-6.109-8.84-10.899-15.801-14.379c-6.988-3.49-15.51-5.24-25.559-5.24h-54.84v125.13
			h34.779v-46.15h3.73l24.85,46.15h38.869L3181.381,1674.72z M3170.02,1650.23c-2.369,2.24-5.92,3.369-10.648,3.369h-17.221v-26.09
			h17.221c4.609,0,8.119,1.15,10.559,3.461c2.42,2.309,3.641,5.479,3.641,9.5C3173.57,1644.73,3172.371,1647.99,3170.02,1650.23z"/>
	</g>
	<path fill="#FFFFFF" d="M3030.43,1458.46c-26.488,0-47.979,21.47-47.979,47.97c0,10.471,3.369,20.15,9.068,28.051l1.891,2.479
		l37.33,49.42l38.121-51.25l0.309-0.42c0.051-0.069,0.111-0.16,0.16-0.229c5.711-7.9,9.07-17.58,9.07-28.051
		C3078.4,1479.93,3056.93,1458.46,3030.43,1458.46z M3030.74,1532.38c-14.34,0-25.949-11.63-25.949-25.95
		c0-14.34,11.609-25.959,25.949-25.959c14.33,0,25.939,11.619,25.939,25.959C3056.68,1520.75,3045.07,1532.38,3030.74,1532.38z"/>
	<path fill="#FFFFFF" d="M3069.352,1494.541l-0.18,0.236c0.053-0.072,0.109-0.163,0.162-0.236H3069.352z"/>
</g>
<g>
	<g>
		<path fill="#FFFFFF" d="M3931.306,1638.301h-88.303l-100.412,275.475h80.49l14.857-44.932l48.83-147.699l29.697,89.094h-0.242
			l19.398,58.605l14.836,44.932h80.883L3931.306,1638.301z"/>
		<path fill="#FFFFFF" d="M4219.284,1806.32c19.768-6.01,34.826-16.072,45.129-30.271c10.26-14.221,15.432-30.689,15.432-49.422
			c0-16.666-3.916-31.701-11.711-45.131c-7.838-13.451-19.461-23.996-34.783-31.658c-15.389-7.684-34.146-11.537-56.27-11.537
			h-120.73v275.475h76.568v-101.6h8.211l54.709,101.6h85.57L4219.284,1806.32z M4194.272,1752.406
			c-5.215,4.932-13.033,7.42-23.445,7.42h-37.908v-57.439h37.908c10.15,0,17.877,2.533,23.248,7.619
			c5.328,5.084,8.016,12.063,8.016,20.914C4202.091,1740.297,4199.446,1747.475,4194.272,1752.406z"/>
	</g>
	<path fill="#FFFFFF" d="M3886.968,1330.225c-58.316,0-105.627,47.267-105.627,105.606c0,23.049,7.418,44.359,19.965,61.751
		l4.162,5.46l82.182,108.797l83.92-112.826l0.682-0.924c0.111-0.153,0.244-0.353,0.355-0.507
		c12.568-17.392,19.967-38.702,19.967-61.751C3992.573,1377.491,3945.306,1330.225,3886.968,1330.225z M3887.649,1492.959
		c-31.568,0-57.129-25.604-57.129-57.128c0-31.571,25.561-57.151,57.129-57.151c31.549,0,57.107,25.58,57.107,57.151
		C3944.757,1467.355,3919.198,1492.959,3887.649,1492.959z"/>
	<path fill="#FFFFFF" d="M3972.653,1409.658l-0.396,0.521c0.115-0.161,0.238-0.36,0.355-0.521H3972.653z"/>
</g>
<g>
	<path d="M1762.243,1678.883h-123.957l-140.957,386.706h112.99l20.856-63.074l68.547-207.338l41.688,125.068h-0.34l27.231,82.27
		l20.826,63.074h113.542L1762.243,1678.883z"/>
	<path d="M1700.016,1246.411c-81.863,0-148.277,66.352-148.277,148.248c0,32.355,10.413,62.271,28.026,86.686l5.843,7.664
		l115.364,152.728l117.806-158.384l0.957-1.297c0.155-0.216,0.343-0.495,0.499-0.711c17.643-24.414,28.028-54.33,28.028-86.686
		C1848.262,1312.763,1781.908,1246.411,1700.016,1246.411z M1700.972,1474.854c-44.314,0-80.196-35.941-80.196-80.194
		c0-44.319,35.882-80.228,80.196-80.228c44.288,0,80.167,35.908,80.167,80.228
		C1781.139,1438.912,1745.26,1474.854,1700.972,1474.854z"/>
</g>
<g>
	<path fill="#FFFFFF" d="M602.243,2860.646H478.286l-140.957,386.706h112.99l20.856-63.074l68.547-207.338l41.688,125.068h-0.34
		l27.231,82.27l20.826,63.074h113.542L602.243,2860.646z"/>
	<path fill="#FFFFFF" d="M540.016,2428.175c-81.863,0-148.277,66.352-148.277,148.248c0,32.355,10.413,62.271,28.026,86.686
		l5.843,7.664L540.972,2823.5l117.806-158.384l0.957-1.297c0.155-0.216,0.343-0.495,0.499-0.711
		c17.643-24.414,28.028-54.33,28.028-86.686C688.262,2494.526,621.908,2428.175,540.016,2428.175z M540.972,2656.617
		c-44.314,0-80.196-35.941-80.196-80.194c0-44.319,35.882-80.228,80.196-80.228c44.288,0,80.167,35.908,80.167,80.228
		C621.139,2620.676,585.26,2656.617,540.972,2656.617z"/>
</g>
<g>
	<path fill="#FFFFFF" d="M602.243,2860.646H478.286l-140.957,386.706h112.99l20.856-63.074l68.547-207.338l41.688,125.068h-0.34
		l27.231,82.27l20.826,63.074h113.542L602.243,2860.646z"/>
	<path fill="#FFFFFF" d="M540.016,2428.175c-81.863,0-148.277,66.352-148.277,148.248c0,32.355,10.413,62.271,28.026,86.686
		l5.843,7.664L540.972,2823.5l117.806-158.384l0.957-1.297c0.155-0.216,0.343-0.495,0.499-0.711
		c17.643-24.414,28.028-54.33,28.028-86.686C688.262,2494.526,621.908,2428.175,540.016,2428.175z M540.972,2656.617
		c-44.314,0-80.196-35.941-80.196-80.194c0-44.319,35.882-80.228,80.196-80.228c44.288,0,80.167,35.908,80.167,80.228
		C621.139,2620.676,585.26,2656.617,540.972,2656.617z"/>
</g>
<g>
</g>
<g>
</g>
<g>
</g>
<g>
</g>
<g>
</g>
<g>
</g>
</svg>
