<svg xmlns="http://www.w3.org/2000/svg" viewBox="0 0 62 52"><defs><style>.cls-1{fill:none;stroke:#f93045;stroke-miterlimit:10;stroke-width:2px;}</style></defs><title>-MercadoLibre-</title><g id="Capa_2" data-name="Capa 2"><g id="Capa_1-2" data-name="Capa 1"><path id="_MercadoLibre_" data-name="&lt;MercadoLibre&gt;" class="cls-1" d="M2.08,24.23c1.5-2,6.35-.39,10.72,1.05s8.1,3.48,8.38,2.94c.15-.28-1-.91-1.56-2.52a7.86,7.86,0,0,1-.19-3.58A32.82,32.82,0,0,0,19,13.7c-.13-.63-.49-2.23-1.17-2.32-.33,0-.48.3-1,.42s-1-.14-2-.63a8.93,8.93,0,0,0-3.12-1.26c-.93-.08-1.08.24-1.75,0S8.44,9,8.51,8c.05-.8.8-1.53,1.36-1.48.32,0,.5.29.59.21s-.62-.87-.59-1.68c0-.64.54-1,2.15-2.32a20.42,20.42,0,0,1,2.14-1.68c1.15-.38,2.95.7,6.63,6.31a95.44,95.44,0,0,1,5.85,10.74s1.45,3,4.09,12.21a4.38,4.38,0,0,1,0,3c-.65,1.49-2.37,2-3.7,2.31-4.47,1.06-8.55.79-14.23.21-4.81-.48-5.51-.66-6.43-1.26C2.61,32.11.52,26.29,2.08,24.23ZM13.29,4.75c-.07.54-.07,1.12.19,1.27.45.25,1.51-.91,1.56-.85a2.5,2.5,0,0,0-.57,1.06,1.62,1.62,0,0,0,0,.42,2.06,2.06,0,0,0,.59,1A17.68,17.68,0,0,0,16.6,9.38m-6-2.52A3.64,3.64,0,0,0,12.9,8.12a3.32,3.32,0,0,0,1.94-.42m40.8,26.84c-.93.6-1.63.78-6.44,1.26-5.68.58-9.76.85-14.23-.21-1.33-.31-3-.82-3.7-2.31a4.38,4.38,0,0,1,0-3c2.64-9.21,4.09-12.21,4.09-12.21A95.44,95.44,0,0,1,41.21,7.38c3.68-5.61,5.48-6.69,6.63-6.31A20.42,20.42,0,0,1,50,2.75C51.59,4,52.1,4.43,52.13,5.07c0,.81-.74,1.56-.59,1.68s.27-.18.59-.21c.56,0,1.31.68,1.36,1.48.07,1-.9,1.65-1.56,1.89s-.82-.08-1.75,0a8.93,8.93,0,0,0-3.12,1.26c-.93.49-1.36.79-2,.63s-.65-.46-1-.42c-.68.09-1,1.69-1.17,2.32a32.82,32.82,0,0,0-.39,8.42,7.86,7.86,0,0,1-.19,3.58c-.6,1.62-1.71,2.24-1.56,2.53.28.53,4.12-1.54,8.38-2.95s9.22-3,10.72-1.05S59.39,32.11,55.64,34.54ZM45.4,9.38A17.68,17.68,0,0,0,47,7.7a2.06,2.06,0,0,0,.59-1,1.62,1.62,0,0,0,0-.42A2.5,2.5,0,0,0,47,5.17c0-.06,1.11,1.1,1.56.85.26-.15.26-.73.2-1.27m-1.56,3a3.32,3.32,0,0,0,1.94.42,3.64,3.64,0,0,0,2.34-1.26M1,26.25c.85,10,16.23,18.92,30,19.44,9.43.36,22.55-3.06,27.87-12.85A15.42,15.42,0,0,0,61,25.28C61,14,47.57,4.86,31,4.86S1,14,1,25.28A9.62,9.62,0,0,0,1,26.25Zm1.08,4C2.64,31.6,8.58,46.31,24.33,50.1c9.38,2.26,21.42.45,28.89-7.72a25.52,25.52,0,0,0,5.56-9.93"/></g></g></svg>