<svg xmlns="http://www.w3.org/2000/svg" viewBox="0 0 62 48.94"><defs><style>.cls-1{fill:none;}.cls-1,.cls-2,.cls-3{stroke:#f93045;stroke-miterlimit:10;}.cls-1,.cls-2{stroke-width:2px;}.cls-2,.cls-3{fill:#f2f2fa;}</style></defs><title>mercadolibre</title><g id="Capa_2" data-name="Capa 2"><g id="Capa_1-2" data-name="Capa 1"><path class="cls-1" d="M13.68,5.55C12,6.48,1.07,12.62,1,22.22c0,.51,0,.88,0,1,.85,10.05,16.23,18.92,30,19.44,9.43.36,22.55-3.06,27.87-12.85A15.42,15.42,0,0,0,61,22.22C61,10.94,47.57,1.8,31,1.8A58,58,0,0,0,20,2.94"/><path class="cls-1" d="M15.52,4.61c-.86.4-1.49.74-1.84.94"/><path class="cls-1" d="M2.11,27.18c.53,1.37,6.47,16.07,22.22,19.87,9.38,2.25,21.42.45,28.89-7.73a25.52,25.52,0,0,0,5.56-9.93"/><g id="_brazos_" data-name="&lt;brazos&gt;"><path class="cls-2" d="M3,22.05C4.52,20.24,9.3,21.7,13.6,23s8,3.16,8.25,2.67c.15-.26-1-.82-1.53-2.29a6.55,6.55,0,0,1-.2-3.24,26.93,26.93,0,0,0-.38-7.63c-.13-.57-.48-2-1.15-2.1-.32,0-.47.26-1,.38s-1-.13-1.92-.57a9.45,9.45,0,0,0-3.07-1.15c-.92-.06-1.07.22-1.73,0s-1.6-.85-1.54-1.71A1.51,1.51,0,0,1,10.72,6c.3,0,.48.26.57.19s-.61-.79-.57-1.52.53-.94,2.11-2.1a21.43,21.43,0,0,1,2.11-1.53c1.14-.34,2.9.64,6.53,5.73a84,84,0,0,1,5.76,9.72s1.43,2.72,4,11.07a3.66,3.66,0,0,1,0,2.67c-.64,1.35-2.34,1.82-3.65,2.1-4.4,1-8.42.71-14,.19-4.74-.44-5.42-.6-6.34-1.14C3.56,29.2,1.5,23.92,3,22.05Z"/><path class="cls-2" d="M55.79,31.4c-.92.54-1.6.7-6.34,1.14-5.59.52-9.61.77-14-.19-1.31-.28-3-.75-3.65-2.1a3.66,3.66,0,0,1,0-2.67c2.6-8.35,4-11.06,4-11.06a83.66,83.66,0,0,1,5.76-9.73C45.21,1.7,47,.72,48.11,1.06a21.43,21.43,0,0,1,2.11,1.53c1.58,1.16,2.08,1.52,2.11,2.1s-.72,1.41-.57,1.52.26-.16.57-.19a1.51,1.51,0,0,1,1.35,1.34c.06.86-.9,1.5-1.54,1.71s-.81-.06-1.73,0a9.45,9.45,0,0,0-3.07,1.15c-.91.44-1.34.71-1.92.57s-.64-.42-1-.38c-.67.08-1,1.53-1.15,2.1a27.36,27.36,0,0,0-.39,7.63,6.45,6.45,0,0,1-.19,3.24c-.58,1.47-1.68,2-1.53,2.29.27.49,4.06-1.39,8.25-2.67s9.08-2.76,10.56-.95S59.49,29.2,55.79,31.4Z"/><g id="_dedos_" data-name="&lt;dedos&gt;"><path class="cls-3" d="M14.08,2.59c-.06.48-.07,1,.19,1.14.44.23,1.48-.82,1.54-.76a2.28,2.28,0,0,0-.57,1,1.35,1.35,0,0,0,0,.37,1.78,1.78,0,0,0,.58,1,18.15,18.15,0,0,0,1.53,1.53"/><path class="cls-3" d="M11.39,4.5a3.64,3.64,0,0,0,2.3,1.14,3.59,3.59,0,0,0,1.92-.38"/><path class="cls-3" d="M45.71,6.79a18.15,18.15,0,0,0,1.53-1.53,1.8,1.8,0,0,0,.58-1,1.4,1.4,0,0,0,0-.38,2.28,2.28,0,0,0-.57-1c.06-.06,1.1,1,1.54.76C49,3.6,49,3.07,49,2.59"/></g></g></g></g></svg>