<svg xmlns="http://www.w3.org/2000/svg" viewBox="0 0 62.2 52.65"><defs><style>.cls-1,.cls-2{fill:none;stroke:#f93045;stroke-miterlimit:10;}.cls-1{stroke-width:2px;}</style></defs><title>-billete-</title><g id="Capa_2" data-name="Capa 2"><g id="Capa_1-2" data-name="Capa 1"><g id="_billete_" data-name="&lt;billete&gt;"><polygon class="cls-1" points="1.25 25.6 49.66 6.72 58.26 32.03 9.85 51.33 1.25 25.6"/><polyline class="cls-1" points="1.25 21.66 52.65 1.32 61.25 28.71"/><ellipse class="cls-1" cx="29.85" cy="29.13" rx="9.35" ry="10.37"/><path class="cls-2" d="M31,25.18a2.85,2.85,0,0,0-2.62-.62c-1.46.51-2.29,2.48-1.87,3.32.35.67,1.29.22,3.37.83,1.35.4,2.64.78,3,1.87a3,3,0,0,1-1.31,3.11,2.81,2.81,0,0,1-3.74-1.24"/><line class="cls-2" x1="32.84" y1="36.39" x2="26.86" y2="22.07"/></g></g></g></svg>