<svg xmlns="http://www.w3.org/2000/svg" viewBox="0 0 61.64 46.69"><defs><style>.cls-1{fill:none;stroke:#f93045;stroke-miterlimit:10;stroke-width:2px;}</style></defs><title>moto_1</title><g id="Capa_2" data-name="Capa 2"><g id="Capa_1-2" data-name="Capa 1"><path class="cls-1" d="M46.07,25.45l-1-4H43L37.86,32.06H25.43L21.28,25.4c-3.08-4.95-9.08-5.29-13.47-4-3.88,1.15-6.25,4.1-6.73,3.33-.37-.58.58-2.91,2.07-4s2.61-.33,3.11-1.33S5.55,17,5.74,14.75a6.57,6.57,0,0,1,2.07-4c2.55-2.5,6.61-1.91,9.33,0,2.53,1.77,2.29,3.55,5.18,5.32,1.27.79,3.16,1.94,5.18,1.34,3.16-1,3-5.1,6.22-6.66,3.4-1.64,6.36,1.61,7.25,0,.7-1.28-.45-4.65-2.07-5.33-1.3-.54-2.46.79-3.11,0a2.89,2.89,0,0,1,0-2.66C36.87.55,41.27.27,43,2.77c1.3,1.83,2,6.26,2,7.6,0,.08,0,.3.1.39.39.33,1.43-1.85,3.11-2.66a3.38,3.38,0,0,1,3.11,0c2.84,1.66,3.38,9.62,1,12a4.92,4.92,0,0,1-3.11,1.33c-1.1,0-1.85-.41-2.07,0s-.06,1,1,2.66m2.42,21.32a10,10,0,1,0-10-10A10,10,0,0,0,50.64,45.39Zm-38.56.3a10,10,0,1,0-10-10A10,10,0,0,0,12.08,45.69Z"/></g></g></svg>