<svg xmlns="http://www.w3.org/2000/svg" viewBox="0 0 62 52.16"><defs><style>.cls-1{fill:none;stroke:#f93045;stroke-miterlimit:10;stroke-width:2px;}.cls-2{fill:#f93045;}</style></defs><title>-Encomiendas-</title><g id="Capa_2" data-name="Capa 2"><g id="Capa_1-2" data-name="Capa 1"><g id="_Encomiendas_" data-name="&lt;Encomiendas&gt;"><path id="_Despachos_" data-name="&lt;Despachos&gt;" class="cls-1" d="M1,3.5,22.23,1,38.85,2.25v7.5h4.61L61,12.25V41L43.46,51,22.23,38.5v3.75L1,29.75ZM22.23,1.63v0Zm.92,10.62,15.7-2.5m4.61,40.63v-40m9.23,1.25V16h3.69V11.63M30.9,1.92V6.63h3.69V1.92M22.22,42.5,25,39.71"/><path class="cls-2" d="M24.16,33.33l.42.18v.19l-.32-.14v.57l.3.14v.18l-.3-.13v.77l-.1,0Z"/><path class="cls-2" d="M24.73,33.6a.58.58,0,0,1,.2,0,.44.44,0,0,1,.23.25,1,1,0,0,1,.07.36c0,.24-.07.36-.16.38h0a.74.74,0,0,1,.12.41,5.13,5.13,0,0,0,.07.51l-.11,0c0-.06,0-.22-.06-.45s-.07-.36-.16-.41l-.1,0v.76l-.1,0Zm.1.84.11.05c.11,0,.18-.05.18-.25s-.07-.36-.19-.41-.08,0-.1,0Z"/><path class="cls-2" d="M25.52,35.14l-.09.52-.11-.06L25.6,34l.13.06L26,35.94l-.12-.06-.09-.6Zm.27,0-.08-.55c0-.13,0-.24-.05-.35h0c0,.1,0,.2,0,.3l-.08.48Z"/><path class="cls-2" d="M26.78,36.23a.36.36,0,0,1-.26,0,.69.69,0,0,1-.33-.39,2.18,2.18,0,0,1-.12-.73c0-.54.18-.85.47-.72a.51.51,0,0,1,.22.18l0,.18a.45.45,0,0,0-.19-.17c-.21-.09-.35.12-.35.57s.13.79.33.89.13,0,.15,0v-.54l-.17-.08v-.19l.28.13Z"/><path class="cls-2" d="M27.07,34.61v1.84L27,36.39V34.56Z"/><path class="cls-2" d="M27.28,34.7l.11,0V36.4l.39.19v.2l-.5-.24Z"/><path class="cls-2" d="M3.85,25.83l.43.18v.19L4,26.06v.57l.3.14V27L4,26.82v.77l-.1,0Z"/><path class="cls-2" d="M4.42,26.1a.58.58,0,0,1,.2,0,.44.44,0,0,1,.23.25.83.83,0,0,1,.07.36c0,.24-.07.36-.15.38h0a.75.75,0,0,1,.11.41,5.13,5.13,0,0,0,.07.51L4.84,28c0-.06,0-.22-.06-.45s-.06-.36-.16-.41l-.1-.05v.76l-.1-.05Zm.1.84.11,0c.11.05.18,0,.18-.25s-.07-.36-.18-.41a.17.17,0,0,0-.11,0Z"/><path class="cls-2" d="M5.21,27.64l-.09.52L5,28.1l.28-1.64.13.06.29,1.92-.12-.06-.09-.6Zm.27-.05L5.4,27c0-.13,0-.24,0-.35h0c0,.1,0,.2,0,.3l-.08.48Z"/><path class="cls-2" d="M6.48,28.73a.39.39,0,0,1-.27,0,.68.68,0,0,1-.32-.39,2,2,0,0,1-.12-.73c0-.54.17-.85.46-.72a.51.51,0,0,1,.22.18l0,.18a.4.4,0,0,0-.19-.17c-.21-.09-.35.12-.35.57s.13.79.34.89.12,0,.15,0V28l-.18-.08v-.19l.29.13Z"/><path class="cls-2" d="M6.77,27.11V29l-.12-.06V27.06Z"/><path class="cls-2" d="M7,27.2l.12.05V28.9l.39.19v.2L7,29.05Z"/></g></g></g></svg>